PathFileType	4	(X/Y/Z)	pose_F01_0-75.trc
DataRate	CameraRate	NumFrames	NumMarkers	Units	OrigDataRate	OrigDataStartFrame	OrigNumFrames
30	30	7	21	m	30	32	75
Frame#	Time	CHip			RHip			RKnee			RAnkle			RBigToe			RSmallToe			RHeel			LHip			LKnee			LAnkle			LBigToe			LSmallToe			LHeel			Neck			Nose			RShoulder			RElbow			RWrist			LShoulder			LElbow			LWrist			
		X1	Y1	Z1	X2	Y2	Z2	X3	Y3	Z3	X4	Y4	Z4	X5	Y5	Z5	X6	Y6	Z6	X7	Y7	Z7	X8	Y8	Z8	X9	Y9	Z9	X10	Y10	Z10	X11	Y11	Z11	X12	Y12	Z12	X13	Y13	Z13	X14	Y14	Z14	X15	Y15	Z15	X16	Y16	Z16	X17	Y17	Z17	X18	Y18	Z18	X19	Y19	Z19	X20	Y20	Z20	X21	Y21	Z21	
32	1.0666666666666667	-0.20897807987376105	1.8881698351122953	-0.7019267558736848	-0.22575102815447148	1.8887145242687244	-0.6311891540051223	-0.2600086747479184	1.724318836240967	-0.5744195921539559	-0.24492788398404422	1.5867696038270696	-0.511121874455674	-0.24132036020226097	1.5543661269284683	-0.5731995617204124	-0.24822941104134155	1.5560596118292858	-0.5353006999734503	-0.2563308604338345	1.5733280833202339	-0.4743371392817578	-0.18599358843857314	1.8902840034145223	-0.7656046923896451	-0.1867004640694114	1.731965143619113	-0.7425630845671034	-0.18199637164332297	1.5958545778507849	-0.6801978588475232	-0.17852775264620738	1.5604034896463979	-0.7626834452674457	-0.16746452189215935	1.5713362695789401	-0.7660905525557994	-0.1846472530738911	1.5824635627971089	-0.655245623084161	-0.19376577651364685	2.062632387354752	-0.7275813580829811	-0.20235317706825912	2.115274538798202	-0.7803569035067491	-0.22103564728334651	2.0618693456432347	-0.6362212974527824	-0.2190986075386127	1.9829405156119235	-0.5371598303270594	-0.2397878816904705	1.9819730517534477	-0.5613377930462999	-0.16227237912241155	2.0604212781077473	-0.8233363108551843	-0.7613825952664535	1.8997440493540518	-0.21274443332264958	-1.0147678789522931	1.8044492875247913	0.019166829009421488
33	1.1	-0.21318330247993486	1.8916035284586497	-0.6973584399366328	-0.23196675974036596	1.8891372219554838	-0.6243352329075096	-0.2622675559284582	1.7228154950493397	-0.5670677480508654	-0.24492788398404422	1.5867696038270696	-0.511121874455674	-0.24132036020226097	1.5543661269284683	-0.5731995617204124	-0.24822941104134155	1.5560596118292858	-0.5353006999734503	-0.2563308604338345	1.5733280833202339	-0.4743371392817578	-0.18952767309228952	1.8905591462921694	-0.7578217719763194	-0.19015111758513942	1.7298534462681154	-0.7348586714553977	-0.1809364319951802	1.5943279768044183	-0.6773348012020176	-0.1762153739394126	1.5605619011170038	-0.7650008752626891	-0.16526600862805657	1.5716651689206398	-0.7682796663121669	-0.18459295119018462	1.582084681628682	-0.6552108405637103	-0.200276212233515	2.059683001804026	-0.7095676524297965	-0.20487998936593196	2.113575991272529	-0.7766018859328574	-0.22894547384750194	2.0599989108056525	-0.6159066595139724	-0.2572278957111392	2.009372447530971	-0.4675648312204363	-0.2411689970204795	2.0203256181420546	-0.5514523300781397	-0.16822361106546674	2.0605830844043815	-0.8023259473838935	-0.46455668692770746	1.936375933471614	-0.5084438142600973	-1.0352864649267903	1.8024690187418113	0.04512599110300998
34	1.1333333333333333	-0.22073185088003014	1.8890031161024579	-0.6732976497888875	-0.23875867722941707	1.8894720412589252	-0.6090534953878634	-0.2622675559284582	1.7228154950493397	-0.5670677480508654	-0.24492788398404422	1.5867696038270696	-0.511121874455674	-0.24132036020226097	1.5543661269284683	-0.5731995617204124	-0.24822941104134155	1.5560596118292858	-0.5353006999734503	-0.2563308604338345	1.5733280833202339	-0.4743371392817578	-0.20313563704245624	1.8882366557553414	-0.7437554329593954	-0.18902632602903677	1.7289583227877745	-0.723712052971611	-0.18167597238683783	1.5968889713715175	-0.6807291662699378	-0.17771825250844575	1.5604743145189746	-0.7595238346033077	-0.16669623349496798	1.5715085541070206	-0.7628868716009559	-0.18509172923187145	1.58301870063765	-0.6590936191765644	-0.20738930980154172	2.061044071272493	-0.6947834807592481	-0.22341750341864808	2.1053249882870717	-0.7398863415335141	-0.2336411334192029	2.059521965065799	-0.6036576919197891	-0.2592763873385154	2.037396055349206	-0.45643934147628035	-0.2425501123504885	2.058678184530661	-0.5415668671099794	-0.18044732655160353	2.0601002535711683	-0.7829688088689044	-0.1677307785889614	1.973007817589176	-0.8041431951975451	-1.0576963410831641	1.802053718248825	0.0691258374320207
35	1.1666666666666667	-0.2279834639327631	1.8816529517661338	-0.6569629705371609	-0.24587644689868876	1.8825917323101338	-0.5840950309556342	-0.2622675559284582	1.7228154950493397	-0.5670677480508654	-0.24492788398404422	1.5867696038270696	-0.511121874455674	-0.24132036020226097	1.5543661269284683	-0.5731995617204124	-0.24822941104134155	1.5560596118292858	-0.5353006999734503	-0.2563308604338345	1.5733280833202339	-0.4743371392817578	-0.2065402265410505	1.883303084610871	-0.732206059779902	-0.19545123098688086	1.7301102622036812	-0.7132699037361254	-0.18163434048968236	1.5996472869780887	-0.6810368872315323	-0.1800326588723127	1.560329614343287	-0.7572679003277121	-0.16984607124612616	1.571575708839406	-0.76383226930648	-0.18475181772121868	1.587348288131764	-0.6599763169686096	-0.21647652904934378	2.0599679333208067	-0.6775393903026605	-0.23695957805926804	2.1071269589598534	-0.6983728637345439	-0.23931312695385765	2.0577000913476673	-0.5772536761254247	-0.2750938633649999	2.049436358439747	-0.42002726453487543	-0.2439312276804975	2.0970307509192674	-0.531681404141819	-0.18665475285616392	2.060650825094943	-0.7735717250478196	-0.1780341844660262	1.973509418498569	-0.7983883094613214	-1.0873548097499535	1.8045687025147017	0.10218101019539529
36	1.2	-0.2353145635146688	1.880801764110492	-0.6445428133689965	-0.2516959359545259	1.880989355295132	-0.5683410169358065	-0.2622675559284582	1.7228154950493397	-0.5670677480508654	-0.24492788398404422	1.5867696038270696	-0.511121874455674	-0.24132036020226097	1.5543661269284683	-0.5731995617204124	-0.24822941104134155	1.5560596118292858	-0.5353006999734503	-0.2563308604338345	1.5733280833202339	-0.4743371392817578	-0.21570023921240702	1.8836109404269732	-0.7061556938283633	-0.20343832149719637	1.7350069383677886	-0.7016318674839334	-0.17935750347729149	1.602463772664236	-0.6837448551063116	-0.17996611806268933	1.5603813438045677	-0.7572005807121023	-0.1674851373158549	1.574295833676749	-0.7664186580232548	-0.18309103804477342	1.588636812063253	-0.666074790635165	-0.22240306082257782	2.0601052900376544	-0.6593301866926473	-0.24555915127166894	2.110895878267038	-0.6626806875773777	-0.2447593263167	2.057125182645355	-0.559042734011868	-0.2749065423699212	2.048850246704117	-0.38856100441176933	-0.25436006560537155	2.107095673322733	-0.48453367668233926	-0.19773262547278694	2.063155592959539	-0.7622712124292302	-0.18846423758975583	1.9769020636510877	-0.7840290341393307	-1.1094465819034312	1.8050407382813234	0.12810814357745276
37	1.2333333333333334	-0.23724782088327695	1.8825762882201138	-0.6221261667909406	-0.25602770843188516	1.8810313511192707	-0.5552654521651255	-0.2622675559284582	1.7228154950493397	-0.5670677480508654	-0.24492788398404422	1.5867696038270696	-0.511121874455674	-0.24132036020226097	1.5543661269284683	-0.5731995617204124	-0.24822941104134155	1.5560596118292858	-0.5353006999734503	-0.2563308604338345	1.5733280833202339	-0.4743371392817578	-0.21945702264557015	1.8850865312203149	-0.6985825573444554	-0.20574026086772992	1.7352504699670221	-0.6992137533568982	-0.1771575532922919	1.6025013419126495	-0.6860687138421946	-0.18136006763952364	1.560271859707652	-0.751884259655117	-0.16734629765181386	1.5732690685402961	-0.7665827357070037	-0.18099595657974413	1.5895211135024758	-0.6682090553587398	-0.22815845102443164	2.062336343197921	-0.6417416831799785	-0.25868583276715873	2.115038225848059	-0.6346073687268977	-0.24969733258954815	2.058385577785648	-0.5492036731893258	-0.27162983340971397	2.0340727320169534	-0.36697103557567123	-0.2692692774254144	2.070452299098915	-0.40974602180759756	-0.202693981448381	2.0667339869461023	-0.7496780068603419	-0.19232661378458024	1.9767750784034448	-0.7658732068403018	-0.193864133121504	1.8950017518389777	-0.7739170714115489
38	1.2666666666666666	-0.24246513125339136	1.8884199167480378	-0.6129907210786398	-0.2621885795954856	1.8863729138654013	-0.549162018168681	-0.2622675559284582	1.7228154950493397	-0.5670677480508654	-0.24492788398404422	1.5867696038270696	-0.511121874455674	-0.24132036020226097	1.5543661269284683	-0.5731995617204124	-0.24822941104134155	1.5560596118292858	-0.5353006999734503	-0.2563308604338345	1.5733280833202339	-0.4743371392817578	-0.2270509055611145	1.8893534529910085	-0.6870147975937947	-0.2084316546051686	1.738430065724364	-0.7006838603942508	-0.18019341865941996	1.6024729003893927	-0.6870576317974302	-0.1800171626734188	1.5603722262820043	-0.7571665784640874	-0.16834079697382773	1.5744522564073316	-0.7696193836642743	-0.18178884950312316	1.594104180178159	-0.6675416060740378	-0.23237231859028373	2.063656577129755	-0.6368189581201215	-0.2654551015195964	2.116361325107871	-0.6127497842059261	-0.2536577009360198	2.0624733938882747	-0.5456515151006479	-0.27341498279450804	2.022848512314847	-0.4000510897600626	-0.2841784892454573	2.0338089248750966	-0.33495836693285586	-0.20741490578679236	2.0652760938747843	-0.7257624854962189	-0.19611727034419293	1.9789072473970117	-0.7382989775918021	-0.19768059109236968	1.8980083409189312	-0.7579891694080355
